<svg version="1.1" xmlns="http://www.w3.org/2000/svg" xmlns:xlink="http://www.w3.org/1999/xlink" x="0px" y="0px"
	 viewBox="0 0 243 243" style="enable-background:new 0 0 243 243;" xml:space="preserve">
<style type="text/css">
	.st0{fill: #fff2ed;}
	.st1{fill: #783c3c;}
</style>
<g id="Layer_2">
</g>
<g id="art">
	<g>
		<circle class="st0" cx="121.51" cy="121.5" r="121.49"/>
		<g>
			<path class="st1" d="M121.5,0C54.4,0,0,54.4,0,121.5c0,51.47,32.02,95.48,77.22,113.18c-1.06-9.61-2.02-24.4,0.42-34.89
				c2.21-9.48,14.25-60.39,14.25-60.39s-3.63-7.28-3.63-18.04c0-16.89,9.79-29.51,21.98-29.51c10.37,0,15.37,7.78,15.37,17.11
				c0,10.42-6.64,26.01-10.06,40.45c-2.86,12.09,6.06,21.96,17.99,21.96c21.6,0,38.19-22.77,38.19-55.64
				c0-29.09-20.9-49.43-50.75-49.43c-34.57,0-54.86,25.93-54.86,52.73c0,10.44,4.02,21.64,9.04,27.73c0.99,1.2,1.14,2.26,0.84,3.48
				c-0.92,3.84-2.97,12.09-3.37,13.78c-0.53,2.22-1.76,2.7-4.06,1.63c-15.18-7.06-24.66-29.25-24.66-47.07
				c0-38.33,27.85-73.52,80.28-73.52c42.15,0,74.9,30.03,74.9,70.17c0,41.87-26.4,75.57-63.05,75.57c-12.31,0-23.89-6.4-27.85-13.95
				c0,0-6.09,23.2-7.57,28.88c-2.74,10.55-10.15,23.78-15.1,31.85c11.37,3.52,23.45,5.42,35.97,5.42c67.1,0,121.5-54.4,121.5-121.5
				C243,54.4,188.6,0,121.5,0z"/>
		</g>
	</g>
</g>
</svg>
